<svg id="svg" version="1.1" xmlns="http://www.w3.org/2000/svg" xmlns:xlink="http://www.w3.org/1999/xlink" width="400" height="400" viewBox="0, 0, 400,400"><g id="svgg"><path id="path0" d="M396.400 5.505 C 396.400 5.963,397.487 7.200,397.891 7.200 C 398.019 7.200,397.783 6.795,397.366 6.300 C 396.950 5.805,396.562 5.325,396.504 5.233 C 396.447 5.142,396.400 5.264,396.400 5.505 M101.781 126.019 L 100.200 127.639 100.200 196.719 L 100.200 265.800 101.574 267.800 C 102.747 269.508,103.987 270.828,105.800 272.300 C 106.020 272.479,107.251 273.024,108.536 273.512 L 110.871 274.400 203.010 274.400 C 259.410 274.400,295.531 274.254,296.135 274.025 C 296.678 273.818,297.724 273.061,298.461 272.341 L 299.800 271.032 299.800 261.802 L 299.800 252.571 298.559 251.243 C 296.695 249.248,300.005 249.313,211.313 249.519 C 127.160 249.715,125.934 249.700,125.339 248.489 C 125.152 248.110,125.000 220.800,125.000 187.800 C 125.000 122.289,125.112 125.672,122.943 125.613 C 122.691 125.606,122.382 125.330,122.255 125.000 C 122.060 124.490,120.619 124.400,112.694 124.400 L 103.362 124.400 101.781 126.019 M264.130 125.594 C 263.115 126.546,262.804 127.226,262.585 128.978 C 262.212 131.969,262.633 220.405,263.026 221.369 C 264.019 223.808,266.348 224.400,274.957 224.400 C 283.046 224.400,285.324 223.991,286.283 222.368 C 286.662 221.725,287.114 221.200,287.286 221.200 C 287.459 221.200,287.600 200.080,287.600 174.267 L 287.600 127.333 286.133 125.867 L 284.667 124.400 275.033 124.402 L 265.400 124.404 264.130 125.594 M190.065 137.418 C 187.005 139.594,187.200 136.662,187.200 180.486 C 187.200 223.030,187.088 220.745,189.285 222.942 C 191.457 225.114,208.603 224.997,210.805 222.795 C 212.893 220.707,212.800 222.696,212.800 180.243 C 212.800 135.839,213.035 139.162,209.752 137.225 C 207.473 135.880,192.015 136.031,190.065 137.418 M227.471 162.493 C 226.453 163.090,225.867 163.763,225.719 164.504 C 225.597 165.116,225.340 165.714,225.148 165.832 C 224.567 166.191,224.719 218.737,225.306 220.400 C 226.553 223.933,228.020 224.405,237.720 224.390 C 246.731 224.377,247.707 224.109,249.515 221.153 L 250.400 219.706 250.400 193.079 C 250.400 164.875,250.426 165.257,248.376 163.111 L 247.124 161.800 238.062 161.698 C 229.298 161.599,228.950 161.625,227.471 162.493 M152.942 187.183 C 152.470 187.381,151.615 188.158,151.042 188.909 L 150.000 190.276 150.000 205.374 L 150.000 220.472 151.090 221.988 C 152.553 224.024,154.354 224.400,162.653 224.400 C 175.552 224.400,175.127 225.040,175.170 205.560 C 175.202 190.794,175.090 189.768,173.258 188.000 L 172.221 187.000 163.010 186.912 C 157.945 186.863,153.414 186.985,152.942 187.183 " stroke="none" fill="#f0eff0" fill-rule="evenodd"></path><path id="path1" d="M5.827 3.400 C 5.240 4.170,4.498 4.800,4.180 4.800 C 3.861 4.800,3.600 5.070,3.600 5.400 C 3.600 5.730,3.780 6.000,4.000 6.000 C 4.220 6.000,4.400 5.823,4.400 5.608 C 4.400 5.392,4.861 5.100,5.424 4.958 C 6.022 4.808,6.367 4.491,6.254 4.197 C 6.148 3.919,6.327 3.311,6.653 2.846 C 7.627 1.455,6.979 1.890,5.827 3.400 M15.798 6.221 C 9.042 7.356,1.993 13.046,1.038 18.136 C 0.887 18.941,0.592 19.600,0.382 19.600 C 0.140 19.600,0.000 57.605,0.000 123.000 C 0.000 179.870,0.144 226.400,0.319 226.400 C 0.495 226.400,4.261 222.755,8.688 218.300 C 42.342 184.438,97.912 129.246,98.131 129.465 C 98.279 129.612,98.400 159.741,98.400 196.418 C 98.400 255.205,98.471 263.161,99.000 263.600 C 99.365 263.903,99.600 264.779,99.600 265.835 C 99.600 267.162,99.789 267.673,100.400 268.000 C 100.840 268.235,101.200 268.692,101.200 269.014 C 101.200 269.336,101.384 269.600,101.609 269.600 C 101.833 269.600,102.202 270.005,102.428 270.500 C 103.033 271.826,107.691 274.810,109.065 274.753 C 110.194 274.706,110.195 274.704,109.200 274.428 C 107.319 273.905,105.600 273.122,105.600 272.788 C 105.600 272.604,105.242 272.340,104.803 272.201 C 103.375 271.748,100.277 267.257,99.852 265.025 C 99.413 262.719,99.003 133.747,99.422 129.605 C 99.661 127.236,99.832 126.863,101.389 125.305 L 103.095 123.600 112.527 123.600 L 121.960 123.600 123.780 125.319 L 125.600 127.039 125.600 187.270 C 125.600 240.667,125.669 247.559,126.208 248.007 C 126.694 248.410,143.575 248.475,210.708 248.331 C 302.179 248.135,296.161 248.001,298.997 250.300 C 300.605 251.603,300.949 253.643,300.938 261.800 C 300.926 270.631,300.799 271.226,298.533 273.121 L 296.764 274.600 255.482 274.803 L 214.200 275.006 255.407 275.103 L 296.614 275.200 298.086 274.200 C 300.216 272.752,300.405 272.877,300.360 275.700 C 300.276 280.983,298.391 282.800,292.995 282.800 C 288.367 282.800,288.888 282.433,278.124 293.264 C 272.803 298.619,248.368 323.160,223.825 347.800 C 199.283 372.440,179.202 392.825,179.201 393.100 C 179.200 393.446,179.969 393.602,181.700 393.606 C 403.517 394.176,385.026 394.289,389.460 392.336 C 393.101 390.732,398.284 384.943,398.983 381.700 C 399.137 380.985,399.429 380.400,399.632 380.400 C 400.512 380.400,400.081 21.843,399.200 21.293 C 398.681 20.969,398.400 20.360,398.400 19.560 C 398.400 18.881,398.040 17.869,397.600 17.309 C 397.160 16.750,396.800 16.040,396.800 15.732 C 396.800 14.403,389.814 8.400,388.267 8.400 C 387.932 8.400,387.342 8.085,386.957 7.700 C 386.105 6.847,357.607 6.636,190.200 6.238 C 131.680 6.099,69.220 5.917,51.400 5.834 C 25.558 5.713,18.352 5.792,15.798 6.221 M286.816 125.265 L 288.400 126.930 288.400 174.187 L 288.400 221.443 287.100 222.685 C 283.460 226.164,266.972 226.495,263.571 223.158 C 261.505 221.131,261.600 223.489,261.606 174.239 C 261.613 124.976,261.536 126.733,263.763 124.669 L 264.917 123.600 275.074 123.600 L 285.232 123.600 286.816 125.265 M261.600 221.729 C 262.859 223.216,264.209 224.400,264.647 224.400 C 264.897 224.400,265.326 224.670,265.600 225.000 C 266.016 225.501,267.597 225.600,275.200 225.600 C 282.803 225.600,284.384 225.501,284.800 225.000 C 285.074 224.670,285.536 224.400,285.826 224.400 C 286.117 224.400,286.606 224.041,286.913 223.603 C 287.742 222.419,288.000 223.019,288.000 226.129 C 288.000 230.749,285.772 232.791,280.713 232.809 C 278.270 232.817,274.969 233.879,274.370 234.848 C 274.231 235.073,271.358 238.034,267.985 241.428 L 261.852 247.600 193.926 247.600 L 126.000 247.600 126.000 224.580 C 126.000 204.515,126.080 201.406,126.623 200.355 C 126.966 199.691,131.331 195.094,136.323 190.138 C 141.316 185.182,154.490 172.098,165.600 161.063 L 185.800 141.000 186.007 181.400 C 186.120 203.620,186.255 221.845,186.307 221.900 C 186.358 221.955,186.627 222.000,186.905 222.000 C 187.183 222.000,187.588 222.394,187.805 222.876 C 188.815 225.117,190.988 225.600,200.064 225.600 C 209.372 225.600,209.881 225.481,212.622 222.658 L 214.000 221.240 214.000 198.185 L 214.000 175.130 218.800 170.351 L 223.600 165.573 223.600 193.422 L 223.600 221.271 225.082 222.836 C 225.898 223.696,226.776 224.400,227.033 224.400 C 227.291 224.400,227.726 224.670,228.000 225.000 C 228.415 225.500,229.949 225.600,237.164 225.600 C 246.730 225.600,247.404 225.457,249.975 222.887 L 251.200 221.662 251.200 192.674 C 251.200 167.275,251.126 163.657,250.600 163.455 C 250.270 163.329,250.000 163.023,250.000 162.777 C 250.000 161.064,248.603 160.827,238.432 160.813 L 228.665 160.800 237.832 151.768 C 242.875 146.800,250.060 139.756,253.800 136.115 L 260.600 129.493 260.800 175.257 C 260.974 215.155,261.077 221.111,261.600 221.729 M209.844 136.247 C 210.594 136.604,211.746 137.574,212.404 138.405 L 213.600 139.915 213.600 180.098 L 213.600 220.280 212.381 221.962 C 210.306 224.828,208.857 225.202,199.867 225.191 C 191.097 225.181,189.868 224.873,187.795 222.162 L 186.600 220.600 186.486 180.800 C 186.356 134.954,186.096 137.656,190.800 135.889 C 192.375 135.297,208.479 135.600,209.844 136.247 M249.121 162.862 L 250.800 164.525 250.800 192.689 L 250.800 220.853 249.713 222.278 C 247.768 224.828,246.200 225.201,237.467 225.191 C 228.571 225.181,227.310 224.849,225.225 221.971 L 224.000 220.280 224.000 193.001 C 224.000 157.770,222.537 161.236,237.421 161.214 L 247.442 161.200 249.121 162.862 M153.400 185.600 C 152.520 186.025,151.620 186.379,151.400 186.386 C 151.180 186.394,150.505 187.020,149.900 187.779 L 148.800 189.157 148.800 205.431 L 148.800 221.706 150.228 223.053 C 151.014 223.794,151.892 224.400,152.180 224.400 C 152.467 224.400,152.926 224.670,153.200 225.000 C 153.615 225.500,155.175 225.600,162.600 225.600 C 170.025 225.600,171.585 225.500,172.000 225.000 C 172.274 224.670,172.716 224.400,172.983 224.400 C 173.250 224.400,174.128 223.665,174.934 222.767 L 176.400 221.135 176.400 205.187 C 176.400 192.867,176.286 189.167,175.900 188.920 C 175.625 188.744,175.202 188.240,174.960 187.800 C 174.719 187.360,173.999 186.745,173.360 186.433 C 172.722 186.122,171.722 185.627,171.138 185.333 C 169.296 184.408,155.436 184.617,153.400 185.600 M172.801 186.533 C 173.132 186.685,173.987 187.666,174.701 188.713 L 176.000 190.617 176.000 205.448 L 176.000 220.280 174.775 221.971 C 172.704 224.830,171.400 225.181,162.800 225.193 C 153.987 225.206,152.172 224.776,150.332 222.240 L 149.200 220.680 149.203 205.440 C 149.206 184.808,148.334 185.975,163.600 186.155 C 168.330 186.211,172.471 186.381,172.801 186.533 M188.918 275.098 C 190.633 275.173,193.333 275.172,194.918 275.097 C 196.503 275.021,195.100 274.959,191.800 274.960 C 188.500 274.961,187.203 275.022,188.918 275.098 M208.100 275.094 C 209.145 275.176,210.855 275.176,211.900 275.094 C 212.945 275.012,212.090 274.944,210.000 274.944 C 207.910 274.944,207.055 275.012,208.100 275.094 " stroke="none" fill="#855f7c" fill-rule="evenodd"></path><path id="path2" d="M92.400 134.677 C 89.430 137.629,67.425 159.603,43.500 183.509 L 0.000 226.975 0.000 303.887 C 0.000 354.896,0.135 380.800,0.400 380.800 C 0.620 380.800,0.800 381.340,0.800 382.000 C 0.800 382.660,0.620 383.200,0.400 383.200 C -0.327 383.200,-0.103 389.875,0.633 390.157 C 2.658 390.934,3.257 390.167,2.202 388.146 C 0.367 384.627,1.514 384.738,5.066 388.423 C 6.973 390.401,8.996 392.131,9.566 392.270 C 10.134 392.409,10.713 392.696,10.851 392.906 C 11.100 393.286,12.535 393.643,16.800 394.387 C 18.166 394.625,48.566 394.739,97.000 394.685 C 139.900 394.638,175.226 394.746,175.503 394.926 C 175.863 395.158,175.434 395.783,174.003 397.113 C 172.901 398.137,172.000 399.205,172.000 399.487 C 172.000 399.903,192.372 400.000,279.600 400.000 C 351.067 400.000,387.200 399.866,387.200 399.600 C 387.200 399.380,387.898 399.200,388.751 399.200 C 389.642 399.200,390.514 398.945,390.800 398.600 C 391.074 398.270,391.546 398.000,391.849 398.000 C 392.152 398.000,392.400 397.762,392.400 397.472 C 392.400 397.182,392.985 396.687,393.700 396.372 C 394.517 396.013,395.048 395.465,395.128 394.900 C 395.198 394.405,395.442 394.000,395.671 394.000 C 395.899 394.000,395.978 394.279,395.847 394.621 C 395.711 394.977,395.778 395.137,396.005 394.997 C 396.222 394.863,396.400 394.521,396.400 394.238 C 396.400 393.955,396.760 393.398,397.200 393.000 C 397.640 392.602,398.000 392.053,398.000 391.781 C 398.000 391.508,398.270 391.182,398.600 391.055 C 398.951 390.921,399.200 390.321,399.200 389.613 C 399.200 388.946,399.380 388.400,399.600 388.400 C 399.840 388.400,400.000 386.800,400.000 384.400 C 400.000 380.443,399.526 379.184,398.983 381.700 C 398.284 384.943,393.101 390.732,389.460 392.336 C 385.026 394.289,403.517 394.176,181.700 393.606 C 179.969 393.602,179.200 393.446,179.201 393.100 C 179.202 392.825,199.283 372.440,223.825 347.800 C 248.368 323.160,272.803 298.619,278.124 293.264 C 288.888 282.433,288.367 282.800,292.995 282.800 C 298.391 282.800,300.276 280.983,300.360 275.700 C 300.405 272.877,300.216 272.752,298.086 274.200 C 297.277 274.750,296.836 275.200,297.107 275.200 C 297.378 275.200,297.600 275.560,297.600 276.000 C 297.600 276.440,297.420 276.800,297.200 276.800 C 296.980 276.800,296.800 277.070,296.800 277.400 C 296.800 277.733,296.444 278.000,296.000 278.000 C 295.560 278.000,295.200 278.257,295.200 278.571 C 295.200 278.885,294.885 279.224,294.500 279.324 C 293.833 279.498,293.833 279.509,294.500 279.554 C 296.762 279.704,294.189 281.860,291.339 282.202 C 285.770 282.870,111.177 282.850,108.875 282.181 C 103.798 280.705,100.335 276.523,99.803 271.227 C 99.557 268.783,99.606 268.400,100.159 268.400 C 100.512 268.400,100.800 268.661,100.800 268.980 C 100.800 269.299,101.029 269.704,101.310 269.880 C 101.590 270.056,102.134 270.695,102.519 271.300 C 102.904 271.905,103.426 272.400,103.679 272.400 C 103.954 272.400,103.877 272.118,103.489 271.700 C 101.598 269.669,101.200 269.166,101.200 268.814 C 101.200 268.602,100.840 268.235,100.400 268.000 C 99.789 267.673,99.600 267.162,99.600 265.835 C 99.600 264.779,99.365 263.903,99.000 263.600 C 98.471 263.161,98.400 255.200,98.400 196.375 C 98.400 159.675,98.265 129.571,98.100 129.479 C 97.935 129.386,95.370 131.725,92.400 134.677 M253.800 136.115 C 250.060 139.756,242.875 146.800,237.832 151.768 L 228.665 160.800 238.432 160.813 C 248.603 160.827,250.000 161.064,250.000 162.777 C 250.000 163.023,250.270 163.329,250.600 163.455 C 251.126 163.657,251.200 167.275,251.200 192.674 L 251.200 221.662 249.982 222.879 C 249.312 223.549,248.877 224.210,249.015 224.348 C 249.153 224.486,249.521 224.250,249.833 223.823 C 250.347 223.119,250.400 223.254,250.400 225.275 C 250.400 228.595,249.094 231.204,247.041 231.984 C 245.424 232.599,228.861 232.522,227.639 231.894 C 225.161 230.621,223.534 224.648,225.578 224.334 C 226.396 224.208,226.363 224.116,225.037 222.800 L 223.625 221.400 223.613 193.486 L 223.600 165.573 218.800 170.351 L 214.000 175.130 214.000 198.185 L 214.000 221.240 212.572 222.710 C 211.732 223.575,211.339 224.246,211.618 224.339 C 211.879 224.426,212.262 224.251,212.470 223.949 C 212.716 223.589,212.800 224.396,212.711 226.287 C 212.447 231.916,211.628 232.320,200.190 232.479 C 188.284 232.643,187.400 232.166,187.400 225.569 C 187.400 222.980,187.263 222.000,186.900 222.000 C 186.625 222.000,186.358 221.955,186.307 221.900 C 186.255 221.845,186.120 203.620,186.007 181.400 L 185.800 141.000 165.600 161.063 C 154.490 172.098,141.316 185.182,136.323 190.138 C 131.331 195.094,126.966 199.691,126.623 200.355 C 126.080 201.406,126.000 204.515,126.000 224.580 L 126.000 247.600 193.926 247.600 L 261.852 247.600 267.985 241.428 C 271.358 238.034,274.231 235.073,274.370 234.848 C 274.969 233.879,278.270 232.817,280.713 232.809 C 285.772 232.791,288.000 230.749,288.000 226.129 C 288.000 223.019,287.742 222.419,286.913 223.603 C 286.606 224.041,286.117 224.400,285.826 224.400 C 285.536 224.400,285.074 224.670,284.800 225.000 C 284.384 225.501,282.803 225.600,275.200 225.600 C 267.597 225.600,266.016 225.501,265.600 225.000 C 265.326 224.670,264.897 224.400,264.647 224.400 C 264.209 224.400,262.859 223.216,261.600 221.729 C 261.077 221.111,260.974 215.155,260.800 175.257 L 260.600 129.493 253.800 136.115 M171.138 185.333 C 171.722 185.627,172.722 186.122,173.360 186.433 C 173.999 186.745,174.719 187.360,174.960 187.800 C 175.202 188.240,175.625 188.744,175.900 188.920 C 176.286 189.167,176.400 192.869,176.400 205.198 L 176.400 221.155 175.000 222.678 C 173.735 224.054,173.677 224.212,174.400 224.328 C 175.862 224.561,175.415 229.205,173.742 231.159 C 172.601 232.492,169.425 232.885,160.991 232.736 C 152.473 232.586,151.905 232.428,150.344 229.768 C 149.501 228.331,149.285 222.577,150.113 223.605 C 150.527 224.119,151.581 224.743,153.400 225.552 C 153.620 225.650,153.553 225.431,153.251 225.065 C 152.949 224.699,152.467 224.400,152.180 224.400 C 151.892 224.400,151.014 223.794,150.228 223.053 L 148.800 221.706 148.800 205.431 L 148.800 189.157 149.900 187.779 C 150.505 187.020,151.180 186.394,151.400 186.386 C 151.620 186.379,152.520 186.025,153.400 185.600 C 155.436 184.617,169.296 184.408,171.138 185.333 M187.600 223.800 C 187.600 224.130,187.892 224.400,188.249 224.400 C 188.780 224.400,188.808 224.291,188.400 223.800 C 188.126 223.470,187.834 223.200,187.751 223.200 C 187.668 223.200,187.600 223.470,187.600 223.800 M189.843 225.100 C 190.470 225.727,191.529 225.800,200.057 225.800 C 208.585 225.800,209.644 225.727,210.271 225.100 C 211.117 224.254,210.509 224.192,209.424 225.013 C 208.285 225.874,191.766 225.852,190.624 224.987 C 189.544 224.171,188.993 224.251,189.843 225.100 M227.623 225.220 C 228.959 226.379,246.700 226.274,247.872 225.100 C 248.720 224.251,248.059 224.168,246.976 224.987 C 245.815 225.866,228.728 225.877,228.000 225.000 C 227.726 224.670,227.317 224.400,227.090 224.400 C 226.863 224.400,227.103 224.769,227.623 225.220 M264.642 225.100 C 265.257 225.715,266.495 225.824,274.881 226.000 L 284.421 226.200 281.894 228.828 C 278.761 232.085,276.982 232.600,269.798 232.325 C 263.875 232.098,262.940 231.423,262.535 227.085 C 262.261 224.149,262.998 223.454,264.642 225.100 M158.078 225.898 C 160.431 225.969,164.391 225.969,166.878 225.899 C 169.365 225.829,167.440 225.771,162.600 225.770 C 157.760 225.770,155.725 225.828,158.078 225.898 M104.634 272.943 C 104.736 273.209,105.580 273.834,106.510 274.331 L 108.200 275.235 141.800 275.115 L 175.400 274.995 141.658 274.898 L 107.916 274.800 106.182 273.630 C 105.228 272.986,104.531 272.677,104.634 272.943 M177.513 275.095 C 178.676 275.176,180.476 275.176,181.513 275.093 C 182.551 275.011,181.600 274.945,179.400 274.946 C 177.200 274.947,176.351 275.014,177.513 275.095 M184.100 275.076 C 184.485 275.176,185.115 275.176,185.500 275.076 C 185.885 274.975,185.570 274.893,184.800 274.893 C 184.030 274.893,183.715 274.975,184.100 275.076 M2.665 391.834 C 1.935 392.837,2.000 394.000,2.787 394.000 C 3.014 394.000,3.200 394.270,3.200 394.600 C 3.200 394.933,3.556 395.200,4.000 395.200 C 4.440 395.200,4.803 395.425,4.807 395.700 C 4.819 396.560,6.665 398.000,7.756 398.000 C 8.417 398.000,8.800 398.220,8.800 398.600 C 8.800 399.399,11.821 399.443,12.126 398.649 C 12.372 398.007,11.684 397.200,10.890 397.200 C 10.121 397.200,5.941 393.921,4.552 392.229 L 3.400 390.825 2.665 391.834 M13.067 398.667 C 12.188 399.545,12.916 400.000,15.200 400.000 C 16.970 400.000,17.600 399.856,17.600 399.450 C 17.600 398.657,13.743 397.990,13.067 398.667 " stroke="none" fill="#66445c" fill-rule="evenodd"></path><path id="path3" d="M149.642 225.800 C 149.677 231.780,150.952 232.559,160.991 232.736 C 173.339 232.954,175.200 232.120,175.200 226.374 C 175.200 224.172,174.042 223.614,172.558 225.100 C 170.388 227.272,152.103 226.050,150.113 223.600 C 149.719 223.115,149.629 223.539,149.642 225.800 M187.328 226.080 C 187.495 232.127,188.526 232.640,200.190 232.479 C 211.641 232.320,212.474 231.908,212.683 226.287 C 212.742 224.699,212.687 223.625,212.562 223.900 C 212.436 224.175,212.048 224.400,211.698 224.400 C 211.349 224.400,210.715 224.715,210.290 225.100 C 209.599 225.725,208.503 225.800,200.029 225.800 C 191.528 225.800,190.470 225.727,189.843 225.100 C 189.458 224.715,188.809 224.400,188.401 224.400 C 187.993 224.400,187.565 224.085,187.451 223.700 C 187.337 223.315,187.282 224.386,187.328 226.080 M250.076 223.510 C 250.034 223.790,249.595 224.203,249.100 224.427 C 248.605 224.651,247.750 225.094,247.200 225.411 C 245.436 226.429,228.810 226.250,227.600 225.200 C 227.093 224.760,226.233 224.400,225.691 224.400 C 223.476 224.400,225.082 230.580,227.639 231.894 C 228.861 232.522,245.424 232.599,247.041 231.984 C 249.185 231.169,250.499 228.431,250.293 225.210 C 250.215 223.994,250.117 223.229,250.076 223.510 M262.535 227.085 C 262.940 231.423,263.875 232.098,269.798 232.325 C 276.982 232.600,278.761 232.085,281.894 228.828 L 284.421 226.200 274.881 226.000 C 266.495 225.824,265.257 225.715,264.642 225.100 C 262.998 223.454,262.261 224.149,262.535 227.085 M99.803 271.227 C 100.335 276.523,103.798 280.705,108.875 282.181 C 111.177 282.850,285.770 282.870,291.339 282.202 C 294.300 281.847,296.456 279.987,294.500 279.476 C 293.833 279.302,293.833 279.291,294.500 279.246 C 294.885 279.221,295.200 278.930,295.200 278.600 C 295.200 278.267,295.556 278.000,296.000 278.000 C 296.444 278.000,296.800 277.733,296.800 277.400 C 296.800 277.070,296.980 276.800,297.200 276.800 C 297.420 276.800,297.600 276.440,297.600 276.000 C 297.600 275.202,297.333 275.200,202.747 275.200 L 107.894 275.200 106.447 274.322 C 105.651 273.839,104.856 273.209,104.680 272.922 C 104.504 272.635,104.103 272.400,103.789 272.400 C 103.475 272.400,102.904 271.905,102.519 271.300 C 102.134 270.695,101.590 270.056,101.310 269.880 C 101.029 269.704,100.800 269.299,100.800 268.980 C 100.800 268.661,100.512 268.400,100.159 268.400 C 99.606 268.400,99.557 268.783,99.803 271.227 M0.000 382.000 C 0.000 382.660,0.180 383.200,0.400 383.200 C 0.620 383.200,0.800 382.660,0.800 382.000 C 0.800 381.340,0.620 380.800,0.400 380.800 C 0.180 380.800,0.000 381.340,0.000 382.000 M1.602 385.914 C 1.604 386.511,1.874 387.516,2.202 388.146 C 3.063 389.795,2.955 390.400,1.800 390.400 C 0.956 390.400,0.800 390.587,0.800 391.600 C 0.800 393.092,1.642 393.181,2.726 391.803 L 3.510 390.807 4.561 392.185 C 5.787 393.792,10.088 397.200,10.890 397.200 C 11.684 397.200,12.372 398.007,12.126 398.649 C 11.869 399.319,12.174 399.348,13.140 398.745 C 14.140 398.120,17.600 398.647,17.600 399.425 C 17.600 399.923,27.906 400.000,94.800 400.000 C 157.308 400.000,172.000 399.902,172.000 399.487 C 172.000 399.205,172.901 398.137,174.003 397.113 C 175.434 395.783,175.863 395.158,175.503 394.926 C 175.226 394.746,139.900 394.638,97.000 394.685 C 48.566 394.739,18.166 394.625,16.800 394.387 C 12.535 393.643,11.100 393.286,10.851 392.906 C 10.713 392.696,10.134 392.409,9.566 392.270 C 8.996 392.131,6.973 390.401,5.066 388.423 C 1.915 385.154,1.600 384.926,1.602 385.914 M397.151 393.069 C 395.956 394.457,395.852 395.457,397.025 394.284 C 397.604 393.705,398.010 393.031,397.928 392.785 C 397.838 392.514,397.532 392.626,397.151 393.069 M393.700 396.356 C 392.985 396.680,392.400 397.182,392.400 397.472 C 392.400 398.167,392.513 398.143,393.576 397.221 C 394.070 396.793,394.682 396.367,394.937 396.276 C 395.192 396.184,395.310 396.033,395.200 395.939 C 395.090 395.844,394.415 396.032,393.700 396.356 " stroke="none" fill="#473442" fill-rule="evenodd"></path><path id="path4" d="M12.006 0.300 C 12.002 0.604,11.448 0.800,10.587 0.800 C 9.701 0.800,9.089 1.023,8.945 1.400 C 8.818 1.730,8.384 2.000,7.980 2.000 C 7.576 2.000,6.994 2.359,6.687 2.797 C 6.380 3.236,5.964 3.464,5.764 3.304 C 5.564 3.144,5.625 3.271,5.900 3.587 C 6.622 4.415,6.525 4.682,5.400 4.964 C 4.850 5.102,4.400 5.392,4.400 5.608 C 4.400 5.823,4.204 6.000,3.964 6.000 C 3.437 6.000,2.032 7.621,2.013 8.251 C 2.006 8.499,1.730 8.926,1.400 9.200 C 1.070 9.474,0.800 10.126,0.800 10.649 C 0.800 11.172,0.620 11.600,0.400 11.600 C 0.160 11.600,0.000 13.200,0.000 15.600 C 0.000 19.632,0.520 20.901,1.038 18.136 C 1.406 16.176,2.996 13.906,6.061 10.963 C 11.673 5.576,11.811 5.560,51.597 5.796 C 69.088 5.900,131.370 6.098,190.000 6.237 C 357.558 6.635,386.104 6.847,386.957 7.700 C 387.342 8.085,387.932 8.400,388.267 8.400 C 389.814 8.400,396.800 14.403,396.800 15.732 C 396.800 16.040,397.160 16.750,397.600 17.309 C 398.040 17.869,398.400 18.847,398.400 19.483 C 398.400 20.594,399.008 21.600,399.680 21.600 C 399.856 21.600,400.000 19.350,400.000 16.600 C 400.000 13.533,399.845 11.600,399.600 11.600 C 399.380 11.600,399.200 11.054,399.200 10.387 C 399.200 9.679,398.951 9.079,398.600 8.945 C 398.270 8.818,398.000 8.491,398.000 8.218 C 398.000 7.946,397.640 7.307,397.200 6.800 C 396.760 6.293,396.400 5.635,396.400 5.339 C 396.400 5.042,396.211 4.800,395.981 4.800 C 395.493 4.800,393.600 2.845,393.600 2.342 C 393.600 2.154,393.060 2.000,392.400 2.000 C 391.600 2.000,391.200 1.800,391.200 1.400 C 391.200 0.981,390.778 0.800,389.800 0.800 C 389.030 0.800,388.400 0.620,388.400 0.400 C 388.400 0.134,325.533 0.000,200.600 0.000 C 50.630 0.000,12.799 0.101,12.794 0.500 C 12.790 0.833,12.658 0.800,12.400 0.400 C 12.142 0.000,12.010 -0.033,12.006 0.300 M101.389 125.305 C 99.832 126.863,99.661 127.236,99.422 129.605 C 99.003 133.747,99.413 262.719,99.852 265.025 C 100.223 266.973,103.497 272.000,104.395 272.000 C 104.586 272.000,104.981 272.236,105.271 272.524 C 107.542 274.773,99.343 274.590,202.600 274.700 L 296.600 274.800 298.453 273.209 C 300.811 271.184,300.926 270.659,300.938 261.800 C 300.949 253.643,300.605 251.603,298.997 250.300 C 296.161 248.001,302.179 248.135,210.708 248.331 C 143.575 248.475,126.694 248.410,126.208 248.007 C 125.669 247.559,125.600 240.667,125.600 187.270 L 125.600 127.039 123.780 125.319 L 121.960 123.600 112.527 123.600 L 103.095 123.600 101.389 125.305 M263.763 124.669 C 261.536 126.733,261.613 124.976,261.606 174.239 C 261.600 223.489,261.505 221.131,263.571 223.158 C 266.972 226.495,283.460 226.164,287.100 222.685 L 288.400 221.443 288.400 174.187 L 288.400 126.930 286.816 125.265 L 285.232 123.600 275.074 123.600 L 264.917 123.600 263.763 124.669 M122.255 125.000 C 122.382 125.330,122.691 125.606,122.943 125.613 C 125.112 125.672,125.000 122.289,125.000 187.800 C 125.000 220.800,125.152 248.110,125.339 248.489 C 125.934 249.700,127.160 249.715,211.313 249.519 C 300.005 249.313,296.695 249.248,298.559 251.243 L 299.800 252.571 299.800 261.802 L 299.800 271.032 298.461 272.341 C 297.724 273.061,296.678 273.818,296.135 274.025 C 295.531 274.254,259.410 274.400,203.010 274.400 L 110.871 274.400 108.536 273.512 C 107.251 273.024,106.020 272.479,105.800 272.300 C 103.987 270.828,102.747 269.508,101.574 267.800 L 100.200 265.800 100.200 196.719 L 100.200 127.639 101.781 126.019 L 103.362 124.400 112.694 124.400 C 120.619 124.400,122.060 124.490,122.255 125.000 M286.133 125.867 L 287.600 127.333 287.600 174.267 C 287.600 200.080,287.459 221.200,287.286 221.200 C 287.114 221.200,286.662 221.725,286.283 222.368 C 285.324 223.991,283.046 224.400,274.957 224.400 C 266.348 224.400,264.019 223.808,263.026 221.369 C 262.633 220.405,262.212 131.969,262.585 128.978 C 262.804 127.226,263.115 126.546,264.130 125.594 L 265.400 124.404 275.033 124.402 L 284.667 124.400 286.133 125.867 M190.800 135.889 C 186.096 137.656,186.356 134.954,186.486 180.800 L 186.600 220.600 187.795 222.162 C 189.868 224.873,191.097 225.181,199.867 225.191 C 208.857 225.202,210.306 224.828,212.381 221.962 L 213.600 220.280 213.600 180.098 L 213.600 139.915 212.404 138.405 C 210.309 135.761,209.570 135.596,199.940 135.632 C 195.243 135.649,191.130 135.765,190.800 135.889 M209.752 137.225 C 213.035 139.162,212.800 135.839,212.800 180.243 C 212.800 222.696,212.893 220.707,210.805 222.795 C 208.603 224.997,191.457 225.114,189.285 222.942 C 187.088 220.745,187.200 223.030,187.200 180.486 C 187.200 136.662,187.005 139.594,190.065 137.418 C 192.015 136.031,207.473 135.880,209.752 137.225 M226.359 162.114 C 223.918 164.193,224.000 163.116,224.000 193.001 L 224.000 220.280 225.225 221.971 C 227.310 224.849,228.571 225.181,237.467 225.191 C 246.200 225.201,247.768 224.828,249.713 222.278 L 250.800 220.853 250.800 192.689 L 250.800 164.525 249.121 162.862 L 247.442 161.200 237.421 161.214 C 227.667 161.228,227.372 161.252,226.359 162.114 M248.376 163.111 C 250.426 165.257,250.400 164.875,250.400 193.079 L 250.400 219.706 249.515 221.153 C 247.707 224.109,246.731 224.377,237.720 224.390 C 228.020 224.405,226.553 223.933,225.306 220.400 C 224.719 218.737,224.567 166.191,225.148 165.832 C 225.340 165.714,225.597 165.116,225.719 164.504 C 226.228 161.958,227.879 161.583,238.062 161.698 L 247.124 161.800 248.376 163.111 M153.541 186.357 C 152.024 186.673,151.088 187.395,149.903 189.161 C 149.270 190.104,149.205 191.614,149.203 205.440 L 149.200 220.680 150.332 222.240 C 152.172 224.776,153.987 225.206,162.800 225.193 C 171.400 225.181,172.704 224.830,174.775 221.971 L 176.000 220.280 176.000 205.448 L 176.000 190.617 174.701 188.713 C 173.987 187.666,173.132 186.685,172.801 186.533 C 171.953 186.142,155.306 185.990,153.541 186.357 M173.258 188.000 C 175.090 189.768,175.202 190.794,175.170 205.560 C 175.127 225.040,175.552 224.400,162.653 224.400 C 154.354 224.400,152.553 224.024,151.090 221.988 L 150.000 220.472 150.000 205.374 L 150.000 190.276 151.042 188.909 C 152.586 186.885,153.003 186.816,163.010 186.912 L 172.221 187.000 173.258 188.000 " stroke="none" fill="#bca4b5" fill-rule="evenodd"></path></g></svg>